<svg width="70" height="70" viewBox="0 0 70 70" fill="none" xmlns="http://www.w3.org/2000/svg">
<g filter="url(#filter0_d_93_3537)">
<rect x="10" y="10" width="50" height="50" rx="25" fill="#1C1C1C" shape-rendering="crispEdges"/>
<path fill-rule="evenodd" clip-rule="evenodd" d="M35 43.7273C39.8199 43.7273 43.7273 39.8199 43.7273 35C43.7273 30.18 39.8199 26.2727 35 26.2727C30.18 26.2727 26.2727 30.18 26.2727 35C26.2727 39.8199 30.18 43.7273 35 43.7273ZM35 40.8182C38.2132 40.8182 40.8182 38.2132 40.8182 35C40.8182 31.7867 38.2132 29.1818 35 29.1818C31.7867 29.1818 29.1818 31.7867 29.1818 35C29.1818 38.2132 31.7867 40.8182 35 40.8182Z" fill="#F7F7F7"/>
<path d="M43.7273 24.8181C42.9239 24.8181 42.2727 25.4693 42.2727 26.2727C42.2727 27.076 42.9239 27.7272 43.7273 27.7272C44.5306 27.7272 45.1818 27.076 45.1818 26.2727C45.1818 25.4693 44.5306 24.8181 43.7273 24.8181Z" fill="#F7F7F7"/>
<path fill-rule="evenodd" clip-rule="evenodd" d="M19.9512 23.7652C19 25.632 19 28.0759 19 32.9636V37.0364C19 41.9241 19 44.368 19.9512 46.2348C20.7879 47.8769 22.123 49.2121 23.7652 50.0487C25.632 51 28.0759 51 32.9636 51H37.0364C41.9241 51 44.368 51 46.2348 50.0487C47.8769 49.2121 49.2121 47.8769 50.0487 46.2348C51 44.368 51 41.9241 51 37.0364V32.9636C51 28.0759 51 25.632 50.0487 23.7652C49.2121 22.123 47.8769 20.7879 46.2348 19.9512C44.368 19 41.9241 19 37.0364 19H32.9636C28.0759 19 25.632 19 23.7652 19.9512C22.123 20.7879 20.7879 22.123 19.9512 23.7652ZM37.0364 21.9091H32.9636C30.4718 21.9091 28.7778 21.9114 27.4685 22.0183C26.1931 22.1225 25.5409 22.3114 25.0859 22.5432C23.9911 23.101 23.101 23.9911 22.5432 25.0859C22.3114 25.5409 22.1225 26.1931 22.0183 27.4685C21.9114 28.7778 21.9091 30.4718 21.9091 32.9636V37.0364C21.9091 39.5283 21.9114 41.2221 22.0183 42.5315C22.1225 43.807 22.3114 44.4592 22.5432 44.9142C23.101 46.0089 23.9911 46.8989 25.0859 47.4567C25.5409 47.6886 26.1931 47.8775 27.4685 47.9817C28.7778 48.0886 30.4718 48.0909 32.9636 48.0909H37.0364C39.5283 48.0909 41.2221 48.0886 42.5315 47.9817C43.807 47.8775 44.4592 47.6886 44.9142 47.4567C46.0089 46.8989 46.8989 46.0089 47.4567 44.9142C47.6886 44.4592 47.8775 43.807 47.9817 42.5315C48.0886 41.2221 48.0909 39.5283 48.0909 37.0364V32.9636C48.0909 30.4718 48.0886 28.7778 47.9817 27.4685C47.8775 26.1931 47.6886 25.5409 47.4567 25.0859C46.8989 23.9911 46.0089 23.101 44.9142 22.5432C44.4592 22.3114 43.807 22.1225 42.5315 22.0183C41.2221 21.9114 39.5283 21.9091 37.0364 21.9091Z" fill="#F7F7F7"/>
</g>
<defs>
<filter id="filter0_d_93_3537" x="0" y="0" width="70" height="70" filterUnits="userSpaceOnUse" color-interpolation-filters="sRGB">
<feFlood flood-opacity="0" result="BackgroundImageFix"/>
<feColorMatrix in="SourceAlpha" type="matrix" values="0 0 0 0 0 0 0 0 0 0 0 0 0 0 0 0 0 0 127 0" result="hardAlpha"/>
<feMorphology radius="2" operator="dilate" in="SourceAlpha" result="effect1_dropShadow_93_3537"/>
<feOffset/>
<feGaussianBlur stdDeviation="4"/>
<feComposite in2="hardAlpha" operator="out"/>
<feColorMatrix type="matrix" values="0 0 0 0 0.388235 0 0 0 0 0.388235 0 0 0 0 0.388235 0 0 0 0.15 0"/>
<feBlend mode="normal" in2="BackgroundImageFix" result="effect1_dropShadow_93_3537"/>
<feBlend mode="normal" in="SourceGraphic" in2="effect1_dropShadow_93_3537" result="shape"/>
</filter>
</defs>
</svg>
