<svg width="44" height="44" viewBox="0 0 44 44" fill="none" xmlns="http://www.w3.org/2000/svg">
<g filter="url(#filter0_d_93_3875)">
<rect x="10" y="10" width="24" height="24" rx="12" fill="#1C1C1C" shape-rendering="crispEdges"/>
<path d="M24.6051 24.383L24.9321 24.0647L24.1728 23.3173L23.8459 23.6355L24.6051 24.383ZM26.0302 23.9314L27.4018 24.6612L27.9161 23.7352L26.5445 23.0054L26.0302 23.9314ZM27.6658 26.1117L26.646 27.1043L27.4052 27.8517L28.4251 26.8592L27.6658 26.1117ZM26.0246 27.4239C24.9837 27.5188 22.2907 27.4342 19.375 24.5965L18.6158 25.3439C21.7975 28.4406 24.8258 28.5918 26.1245 28.4733L26.0246 27.4239ZM19.375 24.5965C16.5958 21.8915 16.1354 19.6165 16.0781 18.6295L15.003 18.6893C15.0751 19.9315 15.6452 22.4528 18.6158 25.3439L19.375 24.5965ZM20.3624 20.2536L20.5683 20.0532L19.809 19.3058L19.6031 19.5062L20.3624 20.2536ZM20.7322 17.4988L19.8269 16.3152L18.9649 16.9469L19.8701 18.1305L20.7322 17.4988ZM16.7823 16.0576L15.6555 17.1543L16.4148 17.9017L17.5416 16.805L16.7823 16.0576ZM19.9827 19.8799C19.6031 19.5062 19.6026 19.5067 19.6021 19.5072C19.6019 19.5074 19.6014 19.5079 19.601 19.5082C19.6003 19.5089 19.5996 19.5096 19.5989 19.5103C19.5974 19.5118 19.5959 19.5133 19.5944 19.5149C19.5913 19.518 19.588 19.5215 19.5845 19.5251C19.5776 19.5325 19.57 19.5409 19.5618 19.5504C19.5456 19.5694 19.5271 19.5928 19.5077 19.6208C19.4689 19.677 19.4265 19.7512 19.3906 19.8445C19.3173 20.035 19.278 20.2861 19.3273 20.597C19.4236 21.205 19.8514 22.0082 20.9473 23.0747L21.7066 22.3273C20.681 21.3292 20.4367 20.7218 20.3914 20.4354C20.3698 20.2991 20.3922 20.2321 20.3983 20.2162C20.4021 20.2064 20.4039 20.2054 20.3993 20.2121C20.397 20.2153 20.3932 20.2205 20.3872 20.2274C20.3843 20.2309 20.3807 20.2348 20.3767 20.2392C20.3746 20.2413 20.3724 20.2436 20.37 20.2461C20.3688 20.2473 20.3676 20.2485 20.3663 20.2498C20.3657 20.2504 20.365 20.251 20.3644 20.2517C20.3641 20.252 20.3636 20.2525 20.3634 20.2526C20.3629 20.2531 20.3624 20.2536 19.9827 19.8799ZM20.9473 23.0747C22.0435 24.1416 22.8679 24.5568 23.4901 24.6503C23.8081 24.698 24.0644 24.6599 24.2589 24.589C24.3542 24.5542 24.4302 24.5133 24.4876 24.4756C24.5163 24.4568 24.5403 24.4388 24.5598 24.423C24.5695 24.4152 24.5781 24.4078 24.5857 24.401C24.5895 24.3977 24.593 24.3945 24.5962 24.3915C24.5979 24.3899 24.5994 24.3885 24.6009 24.3871C24.6016 24.3864 24.6023 24.3856 24.6031 24.3849C24.6034 24.3846 24.604 24.3841 24.6041 24.384C24.6046 24.3835 24.6051 24.383 24.2255 24.0092C23.8459 23.6355 23.8464 23.635 23.8469 23.6345C23.847 23.6344 23.8475 23.6339 23.8479 23.6336C23.8485 23.6329 23.8492 23.6323 23.8498 23.6317C23.8512 23.6305 23.8524 23.6293 23.8536 23.6281C23.8562 23.6258 23.8585 23.6237 23.8608 23.6216C23.8652 23.6177 23.8692 23.6142 23.8728 23.6114C23.8798 23.6057 23.8851 23.602 23.8883 23.5998C23.895 23.5955 23.8936 23.5974 23.883 23.6013C23.8654 23.6077 23.795 23.6297 23.6534 23.6084C23.3567 23.5639 22.7318 23.325 21.7066 22.3273L20.9473 23.0747ZM19.8269 16.3152C19.0952 15.3584 17.6562 15.207 16.7823 16.0576L17.5416 16.805C17.9233 16.4335 18.6012 16.4713 18.9649 16.9469L19.8269 16.3152ZM16.0781 18.6295C16.064 18.3863 16.1779 18.1322 16.4148 17.9017L15.6555 17.1543C15.2698 17.5297 14.9665 18.0611 15.003 18.6893L16.0781 18.6295ZM26.646 27.1043C26.4487 27.2963 26.2372 27.4045 26.0246 27.4239L26.1245 28.4733C26.6519 28.4252 27.084 28.1644 27.4052 27.8517L26.646 27.1043ZM20.5683 20.0532C21.275 19.3654 21.3276 18.2773 20.7322 17.4988L19.8701 18.1305C20.1598 18.5092 20.1167 19.0063 19.809 19.3058L20.5683 20.0532ZM27.4018 24.6612C27.9889 24.9737 28.0803 25.7083 27.6658 26.1117L28.4251 26.8592C29.3873 25.9227 29.0906 24.3601 27.9161 23.7352L27.4018 24.6612ZM24.9321 24.0647C25.2078 23.7964 25.6515 23.73 26.0302 23.9314L26.5445 23.0054C25.7666 22.5915 24.8012 22.7058 24.1728 23.3173L24.9321 24.0647Z" fill="#F7F7F7"/>
</g>
<defs>
<filter id="filter0_d_93_3875" x="0" y="0" width="44" height="44" filterUnits="userSpaceOnUse" color-interpolation-filters="sRGB">
<feFlood flood-opacity="0" result="BackgroundImageFix"/>
<feColorMatrix in="SourceAlpha" type="matrix" values="0 0 0 0 0 0 0 0 0 0 0 0 0 0 0 0 0 0 127 0" result="hardAlpha"/>
<feMorphology radius="2" operator="dilate" in="SourceAlpha" result="effect1_dropShadow_93_3875"/>
<feOffset/>
<feGaussianBlur stdDeviation="4"/>
<feComposite in2="hardAlpha" operator="out"/>
<feColorMatrix type="matrix" values="0 0 0 0 0.388235 0 0 0 0 0.388235 0 0 0 0 0.388235 0 0 0 0.15 0"/>
<feBlend mode="normal" in2="BackgroundImageFix" result="effect1_dropShadow_93_3875"/>
<feBlend mode="normal" in="SourceGraphic" in2="effect1_dropShadow_93_3875" result="shape"/>
</filter>
</defs>
</svg>
