<svg width="36" height="36" viewBox="0 0 36 36" fill="none" xmlns="http://www.w3.org/2000/svg">
<g clip-path="url(#clip0_223_1885)">
<path d="M18 0C8.0595 0 0 8.05838 0 18C0 27.9416 8.05838 36 18 36C27.9416 36 36 27.9416 36 18C36 8.05838 27.9416 0 18 0ZM18 33.786C9.315 33.786 2.25 26.685 2.25 18C2.25 9.315 9.315 2.25 18 2.25C26.685 2.25 33.75 9.315 33.75 18C33.75 26.685 26.685 33.786 18 33.786ZM25.875 16.875H19.125V10.125C19.125 9.504 18.621 9 18 9C17.379 9 16.875 9.504 16.875 10.125V16.875H10.125C9.504 16.875 9 17.379 9 18C9 18.621 9.504 19.125 10.125 19.125H16.875V25.875C16.875 26.496 17.379 27 18 27C18.621 27 19.125 26.496 19.125 25.875V19.125H25.875C26.496 19.125 27 18.621 27 18C27 17.379 26.496 16.875 25.875 16.875Z" fill="#E8E8E8"/>
</g>
<defs>
<clipPath id="clip0_223_1885">
<rect width="36" height="36" fill="white"/>
</clipPath>
</defs>
</svg>
