<svg width="54" height="54" viewBox="0 0 54 54" fill="none" xmlns="http://www.w3.org/2000/svg">
<path d="M27.0495 28.7C26.8745 28.675 26.6495 28.675 26.4495 28.7C22.0495 28.55 18.5494 24.95 18.5494 20.525C18.5494 16 22.1995 12.325 26.7495 12.325C31.2745 12.325 34.9495 16 34.9495 20.525C34.9245 24.95 31.4495 28.55 27.0495 28.7Z" stroke="#F7F7F7" stroke-width="3.5" stroke-linecap="round" stroke-linejoin="round"/>
<path d="M43.5994 45.2003C39.1494 49.2753 33.2494 51.7503 26.7494 51.7503C20.2494 51.7503 14.3494 49.2753 9.89941 45.2003C10.1494 42.8503 11.6494 40.5503 14.3244 38.7503C21.1744 34.2003 32.3744 34.2003 39.1744 38.7503C41.8494 40.5503 43.3494 42.8503 43.5994 45.2003Z" stroke="#F7F7F7" stroke-width="3.5" stroke-linecap="round" stroke-linejoin="round"/>
<path d="M26.75 51.75C40.557 51.75 51.75 40.557 51.75 26.75C51.75 12.9429 40.557 1.75 26.75 1.75C12.9429 1.75 1.75 12.9429 1.75 26.75C1.75 40.557 12.9429 51.75 26.75 51.75Z" stroke="#F7F7F7" stroke-width="3.5" stroke-linecap="round" stroke-linejoin="round"/>
</svg>
