<svg width="50" height="44" viewBox="0 0 50 44" fill="none" xmlns="http://www.w3.org/2000/svg">
<path fill-rule="evenodd" clip-rule="evenodd" d="M17.5697 5.60311C18.9206 4.52294 19.1453 2.54584 18.0711 1.18715C16.9971 -0.171535 15.0312 -0.397348 13.6802 0.682849C2.29596 9.78511 0 21.6179 0 34.5714C0 39.7788 4.19733 44 9.37497 44C14.5526 44 18.7499 39.7788 18.7499 34.5714C18.7499 29.3644 14.5526 25.1429 9.37497 25.1429C8.476 25.1429 7.6066 25.2702 6.7836 25.5078C7.8631 17.5598 10.8043 11.0124 17.5697 5.60311ZM49.9998 34.5714C49.9998 39.7788 45.8027 44 40.6249 44C35.4471 44 31.2499 39.7788 31.2499 34.5714C31.2499 21.6179 33.5458 9.78511 44.9302 0.682849C46.2811 -0.397348 48.247 -0.171535 49.3211 1.18715C50.3952 2.54584 50.1705 4.52294 48.8195 5.60311C42.0542 11.0124 39.113 17.5598 38.0336 25.5078C38.8564 25.2702 39.7258 25.1429 40.6249 25.1429C45.8027 25.1429 49.9998 29.3644 49.9998 34.5714Z" fill="#E8E8E8"/>
</svg>
