<svg width="156" height="100" viewBox="0 0 156 100" fill="none" xmlns="http://www.w3.org/2000/svg">
<path d="M50 11.1111C39.686 11.1111 29.7945 15.2083 22.5014 22.5014C15.2084 29.7945 11.1111 39.686 11.1111 50C11.1111 60.314 15.2084 70.2055 22.5014 77.4986C29.7945 84.7916 39.686 88.8889 50 88.8889H105.555C115.869 88.8889 125.761 84.7916 133.054 77.4986C140.347 70.2055 144.444 60.314 144.444 50C144.444 39.686 140.347 29.7945 133.054 22.5014C125.761 15.2083 115.869 11.1111 105.555 11.1111H50ZM50 0H105.555C118.816 0 131.534 5.26784 140.911 14.6447C150.288 24.0215 155.555 36.7392 155.555 50C155.555 63.2608 150.288 75.9785 140.911 85.3553C131.534 94.7322 118.816 100 105.555 100H50C36.7392 100 24.0215 94.7322 14.6447 85.3553C5.26784 75.9785 0 63.2608 0 50C0 36.7392 5.26784 24.0215 14.6447 14.6447C24.0215 5.26784 36.7392 0 50 0Z" fill="#9F9F9F"/>
<path d="M105.555 66.6667C109.975 66.6667 114.215 64.9108 117.34 61.7852C120.466 58.6595 122.222 54.4203 122.222 50C122.222 45.5797 120.466 41.3405 117.34 38.2149C114.215 35.0892 109.975 33.3333 105.555 33.3333C101.135 33.3333 96.8955 35.0892 93.7699 38.2149C90.6443 41.3405 88.8883 45.5797 88.8883 50C88.8883 54.4203 90.6443 58.6595 93.7699 61.7852C96.8955 64.9108 101.135 66.6667 105.555 66.6667ZM105.555 77.7777C98.1879 77.7777 91.1226 74.8511 85.9132 69.6418C80.7039 64.4325 77.7773 57.3671 77.7773 50C77.7773 42.6329 80.7039 35.5675 85.9132 30.3582C91.1226 25.1489 98.1879 22.2223 105.555 22.2223C112.922 22.2223 119.988 25.1489 125.197 30.3582C130.406 35.5675 133.333 42.6329 133.333 50C133.333 57.3671 130.406 64.4325 125.197 69.6418C119.988 74.8511 112.922 77.7777 105.555 77.7777Z" fill="#9F9F9F"/>
</svg>
