<svg width="97" height="107" viewBox="0 0 97 107" fill="none" xmlns="http://www.w3.org/2000/svg">
<path d="M3.5085 43.5C3.569 32.6249 4.0515 26.7353 7.8935 22.8934C12.287 18.5 19.358 18.5 33.5 18.5H48.5C62.6421 18.5 69.7132 18.5 74.1066 22.8934C78.5 27.2868 78.5 34.3579 78.5 48.5V73.5C78.5 87.642 78.5 94.713 74.1066 99.1065C69.7132 103.5 62.6421 103.5 48.5 103.5H33.5C19.358 103.5 12.287 103.5 7.8935 99.1065C3.5 94.713 3.5 87.642 3.5 73.5V68.5" stroke="#9F9F9F" stroke-width="7" stroke-linecap="round"/>
<path d="M93.5 43.5V73.5C93.5 81.7845 86.7842 88.5 78.5 88.5M18.5 18.5C18.5 10.2158 25.2155 3.5 33.5 3.5H53.5C72.3562 3.5 81.7843 3.5 87.6422 9.35785C90.9081 12.6238 92.3531 16.9995 92.9925 23.5" stroke="#9F9F9F" stroke-width="7" stroke-linecap="round"/>
</svg>
