<?xml version="1.0" encoding="utf-8"?>
<!-- Generator: Adobe Illustrator 24.0.2, SVG Export Plug-In . SVG Version: 6.00 Build 0)  -->
<svg version="1.1" id="Layer_1" xmlns="http://www.w3.org/2000/svg" xmlns:xlink="http://www.w3.org/1999/xlink" x="0px" y="0px"
	 viewBox="0 0 334.5 334.5" style="enable-background:new 0 0 334.5 334.5;" xml:space="preserve">
<style type="text/css">
	.st0{fill:#FFFEF8;}
	.st1{fill:none;stroke:#242E63;stroke-width:2.5;stroke-miterlimit:10;}
	.st2{fill:none;stroke:#203C74;stroke-width:2.5;stroke-miterlimit:10;}
	.st3{fill:none;stroke:#31649F;stroke-width:2.5;stroke-miterlimit:10;}
	.st4{fill:none;stroke:#5C99B7;stroke-width:2.5;stroke-miterlimit:10;}
</style>
<circle class="st0" cx="167.3" cy="167.3" r="167.3"/>
<g>
	<path class="st1" d="M278.2,118.2h-32.8L255,75c1.4-6.2-2.5-12.3-8.7-13.7c-6.2-1.4-12.3,2.5-13.7,8.7L222,118.2h-68l9.6-43.3
		c1.4-6.2-2.5-12.3-8.7-13.7c-6.2-1.4-12.3,2.5-13.7,8.7l-10.7,48.2H83.8c-6.3,0-11.4,5.1-11.4,11.4c0,6.3,5.1,11.4,11.4,11.4h41.6
		l-15.2,68.6H72.4c-6.3,0-11.4,5.1-11.4,11.4c0,6.3,5.1,11.4,11.4,11.4h32.8l-9.6,43.3c-1.4,6.2,2.5,12.3,8.7,13.7
		c0.8,0.2,1.7,0.3,2.5,0.3c5.2,0,10-3.6,11.1-9l10.7-48.2h68.1l-9.6,43.3c-1.4,6.2,2.5,12.3,8.7,13.7c0.8,0.2,1.7,0.3,2.5,0.3
		c5.2,0,9.9-3.6,11.1-9l10.7-48.2h46.7c6.3,0,11.4-5.1,11.4-11.4c0-6.3-5.1-11.4-11.4-11.4h-41.6l15.2-68.6h37.8
		c6.3,0,11.4-5.1,11.4-11.4C289.7,123.3,284.5,118.2,278.2,118.2z M201.7,209.7h-68.1l15.2-68.6h68.1L201.7,209.7z"/>
	<path class="st2" d="M272.8,112.9h-32.8l9.6-43.3c1.4-6.2-2.5-12.3-8.7-13.7c-6.2-1.4-12.3,2.5-13.7,8.7l-10.7,48.2h-68l9.6-43.3
		c1.4-6.2-2.5-12.3-8.7-13.7c-6.2-1.4-12.3,2.5-13.7,8.7l-10.7,48.2H78.5c-6.3,0-11.4,5.1-11.4,11.4c0,6.3,5.1,11.4,11.4,11.4h41.6
		l-15.2,68.6H67c-6.3,0-11.4,5.1-11.4,11.4c0,6.3,5.1,11.4,11.4,11.4h32.8l-9.6,43.3c-1.4,6.2,2.5,12.3,8.7,13.7
		c0.8,0.2,1.7,0.3,2.5,0.3c5.2,0,10-3.6,11.1-9l10.7-48.2h68.1l-9.6,43.3c-1.4,6.2,2.5,12.3,8.7,13.7c0.8,0.2,1.7,0.3,2.5,0.3
		c5.2,0,9.9-3.6,11.1-9l10.7-48.2h46.7c6.3,0,11.4-5.1,11.4-11.4c0-6.3-5.1-11.4-11.4-11.4h-41.6l15.2-68.6h37.8
		c6.3,0,11.4-5.1,11.4-11.4C284.3,118,279.2,112.9,272.8,112.9z M196.3,204.3h-68.1l15.2-68.6h68.1L196.3,204.3z"/>
	<path class="st3" d="M267.5,107.5h-32.8l9.6-43.3c1.4-6.2-2.5-12.3-8.7-13.7c-6.2-1.4-12.3,2.5-13.7,8.7l-10.7,48.2h-68l9.6-43.3
		c1.4-6.2-2.5-12.3-8.7-13.7c-6.2-1.4-12.3,2.5-13.7,8.7l-10.7,48.2H73.1c-6.3,0-11.4,5.1-11.4,11.4c0,6.3,5.1,11.4,11.4,11.4h41.6
		L99.5,199H61.7c-6.3,0-11.4,5.1-11.4,11.4c0,6.3,5.1,11.4,11.4,11.4h32.8l-9.6,43.3c-1.4,6.2,2.5,12.3,8.7,13.7
		c0.8,0.2,1.7,0.3,2.5,0.3c5.2,0,10-3.6,11.1-9l10.7-48.2h68.1l-9.6,43.3c-1.4,6.2,2.5,12.3,8.7,13.7c0.8,0.2,1.7,0.3,2.5,0.3
		c5.2,0,9.9-3.6,11.1-9l10.7-48.2h46.7c6.3,0,11.4-5.1,11.4-11.4c0-6.3-5.1-11.4-11.4-11.4h-41.6l15.2-68.6h37.8
		c6.3,0,11.4-5.1,11.4-11.4C278.9,112.6,273.8,107.5,267.5,107.5z M191,199h-68.1l15.2-68.6h68.1L191,199z"/>
	<path class="st4" d="M262.1,102.1h-32.8l9.6-43.3c1.4-6.2-2.5-12.3-8.7-13.7c-6.2-1.4-12.3,2.5-13.7,8.7l-10.7,48.2h-68l9.6-43.3
		c1.4-6.2-2.5-12.3-8.7-13.7c-6.2-1.4-12.3,2.5-13.7,8.7l-10.7,48.2H67.8c-6.3,0-11.4,5.1-11.4,11.4c0,6.3,5.1,11.4,11.4,11.4h41.6
		l-15.2,68.6H56.3c-6.3,0-11.4,5.1-11.4,11.4c0,6.3,5.1,11.4,11.4,11.4h32.8l-9.6,43.3c-1.4,6.2,2.5,12.3,8.7,13.7
		c0.8,0.2,1.7,0.3,2.5,0.3c5.2,0,10-3.6,11.1-9l10.7-48.2h68.1l-9.6,43.3c-1.4,6.2,2.5,12.3,8.7,13.7c0.8,0.2,1.7,0.3,2.5,0.3
		c5.2,0,9.9-3.6,11.1-9l10.7-48.2h46.7c6.3,0,11.4-5.1,11.4-11.4c0-6.3-5.1-11.4-11.4-11.4h-41.6l15.2-68.6h37.8
		c6.3,0,11.4-5.1,11.4-11.4C273.6,107.3,268.4,102.1,262.1,102.1z M185.6,193.6h-68.1l15.2-68.6h68.1L185.6,193.6z"/>
</g>
</svg>
