<svg width="142" height="100" viewBox="0 0 142 100" fill="none" xmlns="http://www.w3.org/2000/svg">
<path fill-rule="evenodd" clip-rule="evenodd" d="M71.1159 9.54938C71.117 7.75488 71.6283 5.99694 72.5912 4.47686C73.5542 2.95678 74.9299 1.73599 76.5609 0.954265C78.1918 0.172544 80.0121 -0.138509 81.8132 0.0567201C83.6143 0.251949 85.3236 0.94557 86.7452 2.05816L138.341 42.505C139.482 43.3996 140.404 44.5381 141.037 45.8354C141.671 47.1327 142 48.5551 142 49.9962C142 51.4373 141.671 52.8597 141.037 54.157C140.404 55.4543 139.482 56.5929 138.341 57.4874L86.7548 97.9343C85.3333 99.0497 83.6232 99.7457 81.8205 99.9425C80.0178 100.139 78.1956 99.8288 76.563 99.0467C74.9303 98.2647 73.5533 97.0427 72.5898 95.5209C71.6264 93.9992 71.1155 92.2392 71.1159 90.4431V75.6804C63.7836 75.2695 56.7987 75.7091 49.3699 77.7634C39.7801 80.4293 28.9361 85.9522 15.545 96.7781C14.0405 98.0129 12.1908 98.7625 10.244 98.9264C8.29708 99.0904 6.34612 98.6608 4.65275 97.6954C2.85571 96.6714 1.45658 95.081 0.67847 93.1778C-0.0996409 91.2746 -0.211928 89.1681 0.359514 87.1943C4.36332 72.8616 14.1075 57.1817 27.4503 45.0371C39.1819 34.364 54.1745 26.0224 71.1159 24.1209V9.54938ZM85.5875 19.4294V30.8955C85.5875 32.7962 84.8251 34.6189 83.4682 35.9629C82.1112 37.3068 80.2707 38.0619 78.3517 38.0619C63.0504 38.0619 48.7718 45.1136 37.2427 55.5955C31.0736 61.2217 25.7604 67.7038 21.4687 74.8395C29.9394 69.5651 37.8216 66.087 45.4722 63.9658C57.503 60.6215 68.4049 60.8126 79.1428 61.9879C80.9133 62.1808 82.5499 63.0137 83.739 64.3272C84.9281 65.6406 85.5863 67.3423 85.5875 69.1065V80.5726L124.584 49.9962L85.5875 19.4294Z" fill="#959595"/>
</svg>
