<svg width="131" height="100" viewBox="0 0 131 100" fill="none" xmlns="http://www.w3.org/2000/svg">
<path fill-rule="evenodd" clip-rule="evenodd" d="M40.5476 37.5C40.5476 23.6929 51.7192 12.5 65.5 12.5C79.2806 12.5 90.4524 23.6929 90.4524 37.5V43.75H96.6905C108.749 43.75 118.524 53.5438 118.524 65.625C118.524 77.7063 108.749 87.5 96.6905 87.5H90.4524C87.0071 87.5 84.2143 90.2981 84.2143 93.75C84.2143 97.2019 87.0071 100 90.4524 100H96.6905C115.639 100 131 84.61 131 65.625C131 48.6206 118.677 34.4998 102.489 31.739C99.7234 13.7633 84.2162 0 65.5 0C46.7841 0 31.2766 13.7633 28.5103 31.739C12.3234 34.4998 0 48.6206 0 65.625C0 84.61 15.3609 100 34.3095 100H40.5476C43.9928 100 46.7857 97.2019 46.7857 93.75C46.7857 90.2981 43.9928 87.5 40.5476 87.5H34.3095C22.2513 87.5 12.4762 77.7063 12.4762 65.625C12.4762 53.5438 22.2513 43.75 34.3095 43.75H40.5476V37.5ZM88.6252 58.0806L69.911 39.3306C67.475 36.8898 63.525 36.8898 61.089 39.3306L42.3747 58.0806C39.9386 60.5213 39.9386 64.4788 42.3747 66.9194C44.8109 69.36 48.7606 69.36 51.1967 66.9194L59.2619 58.8387V93.75C59.2619 97.2019 62.0547 100 65.5 100C68.9453 100 71.7381 97.2019 71.7381 93.75V58.8387L79.8033 66.9194C82.2393 69.36 86.1893 69.36 88.6252 66.9194C91.0612 64.4788 91.0612 60.5213 88.6252 58.0806Z" fill="#959595"/>
</svg>
