<svg width="77" height="105" viewBox="0 0 77 105" fill="none" xmlns="http://www.w3.org/2000/svg">
<path d="M29.5067 102.025L5.71986 78.2379C3.9765 76.4593 3 74.0681 3 71.5775C3 69.087 3.9765 66.6958 5.71986 64.9172C7.49208 63.1594 9.88409 62.1684 12.3802 62.1579C14.8763 62.1684 17.2683 63.1594 19.0405 64.9172L25.1299 71.0542V18.2949C25.0409 15.9841 25.8225 13.724 27.3202 11.9621C28.8179 10.2001 30.9225 9.0645 33.2175 8.78013C34.4327 8.69544 35.6524 8.86123 36.801 9.26723C37.9495 9.67323 39.0024 10.3108 39.8945 11.1404C40.7865 11.97 41.4987 12.974 41.9868 14.0901C42.4749 15.2062 42.7287 16.4107 42.7322 17.6289V53.3568L66.1385 56.6869C68.2527 56.9954 70.1852 58.0545 71.5828 59.6705C72.9805 61.2865 73.7498 63.3515 73.7503 65.4881C73.7335 77.9175 70.8521 90.1759 65.3298 101.311L64.9016 102.12" stroke="#959595" stroke-width="6" stroke-miterlimit="10"/>
<path d="M13.8083 2.11993C9.64819 6.28557 7.31152 11.9321 7.31152 17.8193C7.31152 23.7065 9.64819 29.353 13.8083 33.5186" stroke="#959595" stroke-width="6" stroke-miterlimit="10"/>
<path d="M54.0537 33.5186C58.1907 29.3408 60.5115 23.6989 60.5115 17.8193C60.5115 11.9397 58.1907 6.29779 54.0537 2.11993" stroke="#959595" stroke-width="6" stroke-miterlimit="10"/>
</svg>
