<svg width="106" height="100" viewBox="0 0 106 100" fill="none" xmlns="http://www.w3.org/2000/svg">
<path d="M60.7897 1.32089C60.3057 0.861018 59.7312 0.507119 59.1027 0.281786C58.4743 0.0564529 57.8057 -0.0353623 57.1398 0.0122038C56.4739 0.0597699 55.8252 0.245672 55.2352 0.55804C54.6451 0.870407 54.1267 1.30238 53.713 1.82637C53.0505 2.57935 52.6269 3.51242 52.4962 4.50684C52.3655 5.50126 52.5336 6.51208 52.9791 7.41068C53.4246 8.30928 54.1274 9.05503 54.998 9.55305C55.8686 10.0511 56.8676 10.2788 57.868 10.2074C58.8685 10.1359 59.825 9.76847 60.616 9.15177C61.4069 8.53506 61.9966 7.69699 62.3098 6.7442C62.6231 5.7914 62.6458 4.76695 62.3751 3.8012C62.1044 2.83545 61.5525 1.97206 60.7897 1.32089Z" fill="#959595"/>
<path d="M76.2051 8.64982C75.2353 9.7568 74.7439 11.2031 74.8387 12.6717C74.9334 14.1404 75.6066 15.5115 76.7105 16.4847C77.2417 17.1435 77.9103 17.6783 78.6697 18.0518C79.429 18.4253 80.2607 18.6286 81.1067 18.6474C81.9527 18.6661 82.7926 18.5 83.5677 18.1605C84.3429 17.821 85.0345 17.3163 85.5944 16.6818C86.1543 16.0473 86.5689 15.2982 86.8092 14.4868C87.0496 13.6754 87.1099 12.8214 86.9859 11.9843C86.8619 11.1472 86.5567 10.3472 86.0915 9.64034C85.6264 8.93345 85.0125 8.33664 84.2927 7.8916C83.7229 7.38624 83.0553 7.00333 82.3314 6.76662C81.6075 6.52991 80.8426 6.44446 80.0843 6.51555C79.326 6.58664 78.5904 6.81276 77.9231 7.1799C77.2558 7.54703 76.671 8.04735 76.2051 8.64982Z" fill="#959595"/>
<path d="M102.489 35.9467C103.333 34.9117 103.854 33.6519 103.989 32.3235C104.124 30.995 103.866 29.6562 103.247 28.4729C102.628 27.2896 101.676 26.3139 100.508 25.6665C99.3401 25.0192 98.0079 24.7288 96.6766 24.8312C95.3452 24.9336 94.0731 25.4244 93.018 26.2427C91.9628 27.061 91.1709 28.1709 90.7404 29.4349C90.3099 30.6989 90.2596 32.0614 90.5959 33.3537C90.9322 34.646 91.6403 35.8111 92.6323 36.7049C93.3192 37.3237 94.1247 37.7965 94.9998 38.0946C95.8749 38.3927 96.8015 38.5098 97.7233 38.4389C98.6451 38.368 99.5429 38.1105 100.362 37.6821C101.181 37.2537 101.905 36.6633 102.489 35.9467Z" fill="#959595"/>
<path d="M102.745 57.1763C101.893 56.2634 100.858 55.541 99.708 55.0567C98.5575 54.5723 97.3175 54.3369 96.0695 54.366C94.8216 54.3951 93.5939 54.6879 92.4672 55.2254C91.3405 55.7628 90.3403 56.5326 89.5324 57.4841C88.7245 58.4357 88.1271 59.5475 87.7795 60.7464C87.4319 61.9454 87.342 63.2043 87.5158 64.4404C87.6895 65.6766 88.1228 66.862 88.7874 67.9187C89.4519 68.9754 90.3326 69.8795 91.3715 70.5715C93.1761 71.7736 95.3593 72.271 97.5065 71.9692C99.6537 71.6675 101.615 70.5877 103.019 68.9348C104.422 67.2819 105.17 65.1711 105.119 63.0034C105.069 60.8357 104.224 58.7621 102.745 57.1763Z" fill="#959595"/>
<path d="M62.5575 81.1865C61.0815 82.8928 60.1465 84.9996 59.8711 87.2389C59.5958 89.4781 59.9927 91.7487 61.0113 93.7617C62.03 95.7748 63.6243 97.4394 65.5916 98.5439C67.5588 99.6484 69.8102 100.143 72.0592 99.9644C74.3083 99.7859 76.4534 98.9425 78.2218 97.5415C79.9902 96.1406 81.302 94.2453 81.9904 92.0967C82.6787 89.9482 82.7125 87.6435 82.0874 85.4757C81.4623 83.3079 80.2066 81.375 78.48 79.9228C77.3619 78.9382 76.0573 78.1883 74.6437 77.7177C73.2301 77.2471 71.7364 77.0654 70.2512 77.1832C68.766 77.3011 67.3196 77.7162 65.998 78.4039C64.6763 79.0916 63.5063 80.0378 62.5575 81.1865Z" fill="#959595"/>
<path d="M21.6133 74.1099C19.4435 76.6756 18.3612 79.9872 18.5973 83.3391C18.8333 86.691 20.369 89.8182 22.877 92.0544C24.7695 93.6761 27.0993 94.702 29.5733 95.003C32.0473 95.3041 34.555 94.8669 36.7812 93.7464C39.0074 92.6259 40.8525 90.8722 42.0846 88.7057C43.3166 86.5393 43.8806 84.057 43.7055 81.5709C43.5304 79.0848 42.6241 76.706 41.1006 74.7336C39.5771 72.7613 37.5044 71.2834 35.1432 70.486C32.7819 69.6886 30.2376 69.6071 27.8302 70.2519C25.4228 70.8968 23.2599 72.239 21.6133 74.1099Z" fill="#959595"/>
<path d="M16.1248 57.287C23.8019 56.6728 29.5275 49.9514 28.9133 42.2743C28.2992 34.5971 21.5778 28.8715 13.9006 29.4857C6.22353 30.0998 0.497883 36.8212 1.11205 44.4984C1.72622 52.1755 8.44764 57.9011 16.1248 57.287Z" fill="#959595"/>
</svg>
